<mxfile host="65bd71144e">
    <diagram name="PÃ¡gina-1" id="slbmch1c0tT7m4cpmZnj">
        <mxGraphModel dx="1020" dy="532" grid="1" gridSize="10" guides="1" tooltips="1" connect="1" arrows="1" fold="1" page="1" pageScale="1" pageWidth="827" pageHeight="1169" math="0" shadow="0">
            <root>
                <mxCell id="0"/>
                <mxCell id="1" parent="0"/>
                <mxCell id="Wlp7xKXwDDim4Q0eKREW-13" value="&lt;div&gt;&lt;span style=&quot;background-color: initial;&quot;&gt;repos&lt;/span&gt;&lt;br&gt;&lt;/div&gt;" style="ellipse;whiteSpace=wrap;html=1;fontColor=#FFFFFF;" parent="1" vertex="1">
                    <mxGeometry x="240" y="650" width="120" height="60" as="geometry"/>
                </mxCell>
                <mxCell id="Wlp7xKXwDDim4Q0eKREW-14" value="&lt;div&gt;&lt;span style=&quot;background-color: initial;&quot;&gt;l&lt;/span&gt;&lt;span style=&quot;background-color: initial;&quot;&gt;og&lt;/span&gt;&lt;/div&gt;" style="ellipse;whiteSpace=wrap;html=1;fontColor=#FFFFFF;" parent="1" vertex="1">
                    <mxGeometry x="707" y="210" width="120" height="60" as="geometry"/>
                </mxCell>
                <mxCell id="Wlp7xKXwDDim4Q0eKREW-15" value="museum" style="ellipse;whiteSpace=wrap;html=1;fontColor=#FFFFFF;" parent="1" vertex="1">
                    <mxGeometry x="240" y="540" width="120" height="60" as="geometry"/>
                </mxCell>
                <mxCell id="Wlp7xKXwDDim4Q0eKREW-16" value="contColSite" style="ellipse;whiteSpace=wrap;html=1;fontColor=#FFFFFF;" parent="1" vertex="1">
                    <mxGeometry x="240" y="210" width="120" height="60" as="geometry"/>
                </mxCell>
                <mxCell id="Wlp7xKXwDDim4Q0eKREW-18" value="assaultParties[i]&lt;span style=&quot;background-color: initial;&quot;&gt;&lt;br&gt;&lt;/span&gt;i=0,1, ... ,(M-1)/K" style="ellipse;whiteSpace=wrap;html=1;fontColor=#FFFFFF;" parent="1" vertex="1">
                    <mxGeometry x="240" y="430" width="120" height="60" as="geometry"/>
                </mxCell>
                <mxCell id="Wlp7xKXwDDim4Q0eKREW-19" value="concentSite" style="ellipse;whiteSpace=wrap;html=1;fontColor=#FFFFFF;" parent="1" vertex="1">
                    <mxGeometry x="240" y="320" width="120" height="60" as="geometry"/>
                </mxCell>
                <mxCell id="Wlp7xKXwDDim4Q0eKREW-29" value="masterThief" style="ellipse;whiteSpace=wrap;html=1;fillColor=#A3A3A3;fontColor=#FFFFFF;strokeColor=#121212;" parent="1" vertex="1">
                    <mxGeometry x="10" y="430" width="120" height="60" as="geometry"/>
                </mxCell>
                <mxCell id="Wlp7xKXwDDim4Q0eKREW-30" value="ordinaryThieves&lt;span style=&quot;background-color: initial;&quot;&gt;[i]&lt;/span&gt;&lt;br&gt;i=0,1, ... ,M-2" style="ellipse;whiteSpace=wrap;html=1;fillColor=#A3A3A3;fontColor=#FFFFFF;strokeColor=#121212;" parent="1" vertex="1">
                    <mxGeometry x="10" y="650" width="120" height="60" as="geometry"/>
                </mxCell>
                <mxCell id="Wlp7xKXwDDim4Q0eKREW-67" value="waitingThieves" style="ellipse;whiteSpace=wrap;html=1;fontColor=#FFFFFF;" parent="1" vertex="1">
                    <mxGeometry x="470" y="540" width="120" height="60" as="geometry"/>
                </mxCell>
                <mxCell id="sW6pan8LRh1t9cjDLgkF-2" value="&lt;ol&gt;&lt;li style=&quot;text-align: left;&quot;&gt;readlnChar, readlnString, writeString, writelnString&lt;br&gt;&lt;/li&gt;&lt;li style=&quot;text-align: left;&quot;&gt;exists&lt;br&gt;&lt;/li&gt;&lt;li style=&quot;text-align: left;&quot;&gt;instantiate&lt;br&gt;&lt;/li&gt;&lt;li style=&quot;text-align: left;&quot;&gt;instantiate, start, join&lt;br&gt;&lt;/li&gt;&lt;li style=&quot;text-align: left;&quot;&gt;writelnString&lt;br&gt;&lt;/li&gt;&lt;li style=&quot;text-align: left;&quot;&gt;instantiate, openForWriting, openForAppending,close, writelnString&lt;br&gt;&lt;/li&gt;&lt;li style=&quot;text-align: left;&quot;&gt;instantiate, full, write, read&lt;br&gt;&lt;/li&gt;&lt;li style=&quot;text-align: left;&quot;&gt;startOperations,appraiseSit, takeARest,collectCanvas,getAvailableAssaultParty, getAvailableRoom, getNumberOfCanvas&lt;/li&gt;&lt;li style=&quot;text-align: left;&quot;&gt;prepareAssaultParty,sumUpResults&lt;/li&gt;&lt;li style=&quot;text-align: left;&quot;&gt;sendAssaultParty&lt;/li&gt;&lt;li style=&quot;text-align: left;&quot;&gt;crawlIn,crawlOut,reverseDirection,getTargetRoom&lt;/li&gt;&lt;li style=&quot;text-align: left;&quot;&gt;rollACanvas&lt;/li&gt;&lt;li style=&quot;text-align: left;&quot;&gt;handACanvas&lt;/li&gt;&lt;li style=&quot;text-align: left;&quot;&gt;prepareExcursion,amINeeded&lt;/li&gt;&lt;li style=&quot;text-align: left;&quot;&gt;setAssaultPartyRoomId, addAssaultPartyElement&lt;br&gt;&lt;/li&gt;&lt;li style=&quot;text-align: left;&quot;&gt;yieldAssaultPartyElementCanvas, removeAssaultPartyElement&lt;br&gt;&lt;/li&gt;&lt;li style=&quot;text-align: left;&quot;&gt;holdAssaultPartyElementCanvas&lt;br&gt;&lt;/li&gt;&lt;li style=&quot;text-align: left;&quot;&gt;updateAssaultPartyElementPosition &lt;br&gt;&lt;/li&gt;&lt;li style=&quot;text-align: left;&quot;&gt;getRoomDistance&lt;/li&gt;&lt;/ol&gt;" style="text;html=1;align=center;verticalAlign=middle;resizable=0;points=[];autosize=1;strokeColor=none;fillColor=none;" parent="1" vertex="1">
                    <mxGeometry x="20" y="800" width="700" height="310" as="geometry"/>
                </mxCell>
                <mxCell id="fyEnYTBoP2T4u3YWnId1-1" value="waitingThieves" style="ellipse;whiteSpace=wrap;html=1;fontColor=#FFFFFF;" parent="1" vertex="1">
                    <mxGeometry x="470" y="320" width="120" height="60" as="geometry"/>
                </mxCell>
                <mxCell id="3" value="&lt;span style=&quot;font-family: Helvetica; font-size: 12px; font-style: normal; font-variant-ligatures: normal; font-variant-caps: normal; font-weight: 400; letter-spacing: normal; orphans: 2; text-align: center; text-indent: 0px; text-transform: none; widows: 2; word-spacing: 0px; -webkit-text-stroke-width: 0px; background-color: rgb(42, 37, 47); text-decoration-thickness: initial; text-decoration-style: initial; text-decoration-color: initial; float: none; display: inline !important;&quot;&gt;GenericIO&lt;/span&gt;" style="ellipse;shape=doubleEllipse;whiteSpace=wrap;html=1;strokeColor=default;fontColor=#FFFFFF;" vertex="1" parent="1">
                    <mxGeometry x="707" y="430" width="120" height="60" as="geometry"/>
                </mxCell>
                <mxCell id="2" value="&lt;span style=&quot;&quot;&gt;FileOp&lt;/span&gt;" style="ellipse;shape=doubleEllipse;whiteSpace=wrap;html=1;strokeColor=default;fontColor=#FFFFFF;" vertex="1" parent="1">
                    <mxGeometry x="707" y="650" width="120" height="60" as="geometry"/>
                </mxCell>
                <mxCell id="4" value="&lt;span style=&quot;font-size: 11px;&quot;&gt;&lt;font&gt;HeistToTheMuseum&lt;/font&gt;&lt;/span&gt;" style="ellipse;shape=doubleEllipse;whiteSpace=wrap;html=1;fontColor=#FFFFFF;fillColor=#A3A3A3;" vertex="1" parent="1">
                    <mxGeometry x="10" y="210" width="120" height="60" as="geometry"/>
                </mxCell>
                <mxCell id="7" value="Threads&lt;br&gt;(clients)" style="text;html=1;strokeColor=none;fillColor=none;align=center;verticalAlign=middle;whiteSpace=wrap;rounded=0;fontColor=#FFFFFF;" vertex="1" parent="1">
                    <mxGeometry x="37.5" y="170" width="65" height="30" as="geometry"/>
                </mxCell>
                <mxCell id="8" value="Shared regions&lt;br&gt;(servers)&lt;br&gt;(can communicate with each other)" style="text;html=1;strokeColor=none;fillColor=none;align=center;verticalAlign=middle;whiteSpace=wrap;rounded=0;fontColor=#FFFFFF;" vertex="1" parent="1">
                    <mxGeometry x="198.75" y="160" width="202.5" height="30" as="geometry"/>
                </mxCell>
                <mxCell id="9" value="CommInfra" style="text;html=1;strokeColor=none;fillColor=none;align=center;verticalAlign=middle;whiteSpace=wrap;rounded=0;fontColor=#FFFFFF;" vertex="1" parent="1">
                    <mxGeometry x="497.5" y="170" width="65" height="30" as="geometry"/>
                </mxCell>
                <mxCell id="10" value="genclass" style="text;html=1;strokeColor=none;fillColor=none;align=center;verticalAlign=middle;whiteSpace=wrap;rounded=0;fontColor=#FFFFFF;" vertex="1" parent="1">
                    <mxGeometry x="734.5" y="170" width="65" height="30" as="geometry"/>
                </mxCell>
            </root>
        </mxGraphModel>
    </diagram>
</mxfile>
